<?xml version="1.0" encoding="UTF-8"?>
<!DOCTYPE svg PUBLIC "-//W3C//DTD SVG 1.1//EN" "http://www.w3.org/Graphics/SVG/1.1/DTD/svg11.dtd">
<!-- Creator: CorelDRAW X6 -->
<svg xmlns="http://www.w3.org/2000/svg" xml:space="preserve" width="1167px" height="210px" version="1.1" style="shape-rendering:geometricPrecision; text-rendering:geometricPrecision; image-rendering:optimizeQuality; fill-rule:evenodd; clip-rule:evenodd"
viewBox="0 0 1534 276"
 xmlns:xlink="http://www.w3.org/1999/xlink">
 <defs>
  <style type="text/css">
   <![CDATA[
    .fil2 {fill:#2B2A29}
    .fil1 {fill:#6DCFF6}
    .fil0 {fill:#B7CA33}
   ]]>
  </style>
 </defs>
 <g id="Слой_x0020_1">
  <metadata id="CorelCorpID_0Corel-Layer"/>
  <g id="_442619040">
   <path class="fil0" d="M937 12l-892 0c-9,0 -17,4 -23,10 -6,6 -10,14 -10,23l0 186c0,9 4,17 10,23 6,6 14,10 23,10l892 0c9,0 17,-4 23,-10 6,-6 10,-14 10,-23l0 -186c0,-9 -4,-17 -10,-23 -6,-6 -14,-10 -23,-10zm-892 -12l892 0c12,0 23,5 32,13 8,9 13,20 13,32l0 186c0,12 -5,24 -13,32 -9,8 -20,13 -32,13l-892 0c-12,0 -23,-5 -32,-13 -8,-8 -13,-20 -13,-32l0 -186c0,-12 5,-23 13,-32 9,-8 20,-13 32,-13z"/>
   <polygon class="fil1" points="1057,121 1057,155 1139,155 1139,183 1183,138 1139,93 1139,121 "/>
   <path class="fil2" d="M169 148l4 3c0,0 -7,18 -13,33 -6,15 -13,32 -34,26 -21,-6 -27,-22 -29,-44 -3,-22 10,-51 37,-75 27,-23 55,-22 68,-19 12,2 22,13 22,13l21 -4 1 3c0,0 -16,2 -26,8 -11,6 -21,25 -21,25l-5 -3c0,0 4,-8 9,-14 4,-7 11,-12 11,-12 0,0 -9,-7 -21,-8 -13,0 -32,0 -55,26 -22,26 -29,51 -25,70 4,18 14,26 21,25 7,0 15,-8 20,-22 5,-13 15,-31 15,-31zm595 55l-2 5 35 1 3 -6 -15 -4c0,0 14,-18 25,-32 11,-14 17,-19 17,-19l41 0c0,0 -3,8 -12,26 -9,17 -30,26 -30,26l-1 8 46 -4 2 -6 -21 -1c0,0 16,-12 24,-30 7,-18 14,-36 7,-56 -7,-19 -29,-45 -29,-45l-8 2c0,0 7,29 -8,49 -14,21 -41,55 -50,65 -10,11 -13,17 -13,17l-11 4zm70 -64c0,0 10,-9 15,-22 4,-13 7,-26 7,-26 0,0 10,7 16,22 5,15 0,25 0,25l-38 1zm-161 -75l-3 10 19 0c0,0 -11,14 -7,37 3,22 12,29 17,43 6,14 5,20 -3,32 -8,12 -11,15 -11,15l-14 4 0 4 37 1 3 -6 -14 -3c0,0 5,-9 12,-19 7,-10 7,-19 1,-34 -6,-14 -10,-22 -10,-22l56 1c0,0 -1,17 -5,34 -3,17 -18,41 -18,41l-11 1 0 6 32 -1 2 -4 -10 -1c0,0 11,-12 18,-39 6,-28 16,-50 16,-66 -1,-16 -2,-24 -2,-24l13 -1 1 -5 -47 -3 -1 6 21 5c0,0 3,12 0,22 -3,10 -6,19 -6,19l-59 0c0,0 -3,-8 1,-22 4,-14 9,-20 9,-20l14 -3 0 -6 -51 -2zm-28 -2l6 0c0,0 -6,12 -5,25 2,14 5,23 5,23l-2 4c0,0 -10,-14 -20,-25 -9,-11 -21,-18 -33,-7 -12,10 -15,17 11,41 27,25 26,36 20,53 -7,17 -12,31 4,26 16,-6 24,-10 33,-18 8,-7 11,-10 11,-18 0,-8 -2,-10 -2,-10l5 -3c0,0 11,16 2,27 -9,11 -23,24 -45,31 -22,7 -39,4 -33,-13 5,-17 22,-35 8,-53 -14,-19 -23,-26 -31,-37 -8,-12 -4,-23 10,-33 15,-9 35,-7 39,-2 5,4 9,6 11,1 3,-4 6,-12 6,-12zm-198 139l-4 8 72 4 5 -9 -18 -2c0,0 27,-19 43,-31 16,-13 28,-26 22,-37 -6,-10 -33,-36 -33,-36l8 -5 29 23 5 0 -33 -32c0,0 -7,3 -18,7 -11,4 -25,10 -25,10 0,0 8,9 13,16 4,8 4,16 4,16l4 -1c0,0 0,-6 -2,-14 -1,-8 -5,-13 -5,-13l12 -2c0,0 16,15 23,25 7,9 3,18 -9,27 -13,10 -65,44 -65,44l-28 2zm-159 -12l0 6 59 6 2 -7 -21 -5c0,0 7,-11 18,-23 12,-12 26,-20 26,-20 0,0 37,6 78,0 41,-6 57,-13 56,-22 -2,-9 -10,-21 -42,-18 -32,4 -66,3 -66,3l-5 4 21 2c0,0 -24,2 -49,16 -25,15 -30,20 -42,32 -11,12 -17,23 -17,23l-18 3zm92 -50c0,0 38,3 65,-1 27,-4 45,-8 46,-16 0,-8 -14,-12 -44,-6 -31,5 -67,23 -67,23zm-206 64l-1 -8 8 -4c0,0 5,-28 32,-52 28,-25 69,-38 84,-41 15,-3 27,-1 27,-1l3 8c0,0 -12,-5 -29,11 -16,16 -24,31 -27,44 -3,12 0,26 0,26l8 2 -2 6 -41 3 -2 -8 15 -3c0,0 -1,-9 1,-17 2,-7 4,-16 4,-16 0,0 -13,-1 -23,0 -9,0 -25,3 -25,3 0,0 -5,5 -9,13 -4,7 -4,15 -4,15l11 6 2 4c0,0 -8,2 -17,5 -10,3 -15,4 -15,4zm40 -55c0,0 11,-2 22,-2 11,0 20,0 20,0 0,0 8,-13 15,-21 8,-8 16,-18 16,-18 0,0 -14,3 -39,17 -26,13 -34,24 -34,24z"/>
   <polygon class="fil0" points="1258,129 1295,92 1369,166 1497,37 1534,74 1369,239 "/>
  </g>
 </g>
</svg>
