<?xml version="1.0" encoding="UTF-8"?>
<!DOCTYPE svg PUBLIC "-//W3C//DTD SVG 1.1//EN" "http://www.w3.org/Graphics/SVG/1.1/DTD/svg11.dtd">
<!-- Creator: CorelDRAW X6 -->
<svg xmlns="http://www.w3.org/2000/svg" xml:space="preserve" width="1167px" height="210px" version="1.1" style="shape-rendering:geometricPrecision; text-rendering:geometricPrecision; image-rendering:optimizeQuality; fill-rule:evenodd; clip-rule:evenodd"
viewBox="0 0 1539 277"
 xmlns:xlink="http://www.w3.org/1999/xlink">
 <defs>
  <style type="text/css">
   <![CDATA[
    .fil2 {fill:#2B2A29}
    .fil1 {fill:#6DCFF6}
    .fil3 {fill:#FFAE00}
    .fil0 {fill:#FFCC00}
    .fil4 {fill:white;fill-rule:nonzero}
   ]]>
  </style>
 </defs>
 <g id="Слой_x0020_1">
  <metadata id="CorelCorpID_0Corel-Layer"/>
  <g id="_443965792">
   <path class="fil0" d="M939 12l-893 0c-10,0 -18,4 -24,10 -6,6 -10,14 -10,24l0 185c0,10 4,18 10,24 6,6 14,10 24,10l893 0c10,0 18,-4 24,-10 6,-6 10,-14 10,-24l0 -185c0,-10 -4,-18 -10,-24 -6,-6 -14,-10 -24,-10zm-893 -12l893 0c13,0 24,5 33,13 8,9 13,20 13,33l0 185c0,13 -5,24 -13,33 -9,8 -20,13 -33,13l-893 0c-13,0 -24,-5 -33,-13 -8,-9 -13,-20 -13,-33l0 -185c0,-13 5,-24 13,-33 9,-8 20,-13 33,-13z"/>
   <polygon class="fil1" points="1060,122 1060,155 1142,155 1142,183 1187,138 1142,94 1142,122 "/>
   <path class="fil2" d="M128 49l17 0c5,0 9,5 9,10l0 17c0,5 -4,9 -9,9l-17 0c-5,0 -9,-4 -9,-9l0 -17c0,-5 4,-10 9,-10zm712 143l17 0c5,0 9,4 9,9l0 17c0,5 -4,9 -9,9l-17 0c-5,0 -9,-4 -9,-9l0 -17c0,-5 4,-9 9,-9zm-48 0l18 0c5,0 9,4 9,9l0 17c0,5 -4,9 -9,9l-18 0c-5,0 -9,-4 -9,-9l0 -17c0,-5 4,-9 9,-9zm-47 0l17 0c5,0 9,4 9,9l0 17c0,5 -4,9 -9,9l-17 0c-5,0 -9,-4 -9,-9l0 -17c0,-5 4,-9 9,-9zm-95 0l17 0c5,0 9,4 9,9l0 17c0,5 -4,9 -9,9l-17 0c-5,0 -9,-4 -9,-9l0 -17c0,-5 4,-9 9,-9zm-47 0l17 0c5,0 9,4 9,9l0 17c0,5 -4,9 -9,9l-17 0c-6,0 -10,-4 -10,-9l0 -17c0,-5 4,-9 10,-9zm-48 0l17 0c5,0 9,4 9,9l0 17c0,5 -4,9 -9,9l-17 0c-5,0 -9,-4 -9,-9l0 -17c0,-5 4,-9 9,-9zm-285 0l255 0c5,0 9,4 9,9l0 17c0,5 -4,9 -9,9l-255 0c-5,0 -9,-4 -9,-9l0 -17c0,-5 4,-9 9,-9zm-47 0l17 0c5,0 9,4 9,9l0 17c0,5 -4,9 -9,9l-17 0c-5,0 -9,-4 -9,-9l0 -17c0,-5 4,-9 9,-9zm-48 0l18 0c5,0 9,4 9,9l0 17c0,5 -4,9 -9,9l-18 0c-5,0 -9,-4 -9,-9l0 -17c0,-5 4,-9 9,-9zm-47 0l17 0c5,0 9,4 9,9l0 17c0,5 -4,9 -9,9l-17 0c-5,0 -9,-4 -9,-9l0 -17c0,-5 4,-9 9,-9zm664 -48l18 0c5,0 9,5 9,10l0 17c0,5 -4,9 -9,9l-18 0c-5,0 -9,-4 -9,-9l0 -17c0,-5 4,-10 9,-10zm-142 0l17 0c5,0 9,5 9,10l0 17c0,5 -4,9 -9,9l-17 0c-5,0 -9,-4 -9,-9l0 -17c0,-5 4,-10 9,-10zm-47 0l17 0c5,0 9,5 9,10l0 17c0,5 -4,9 -9,9l-17 0c-6,0 -10,-4 -10,-9l0 -17c0,-5 4,-10 10,-10zm-48 0l17 0c5,0 9,5 9,10l0 17c0,5 -4,9 -9,9l-17 0c-5,0 -9,-4 -9,-9l0 -17c0,-5 4,-10 9,-10zm-47 0l17 0c5,0 9,5 9,10l0 17c0,5 -4,9 -9,9l-17 0c-5,0 -10,-4 -10,-9l0 -17c0,-5 5,-10 10,-10zm-48 0l17 0c5,0 10,5 10,10l0 17c0,5 -5,9 -10,9l-17 0c-5,0 -9,-4 -9,-9l0 -17c0,-5 4,-10 9,-10zm-47 0l17 0c5,0 9,5 9,10l0 17c0,5 -4,9 -9,9l-17 0c-5,0 -10,-4 -10,-9l0 -17c0,-5 5,-10 10,-10zm-48 0l17 0c5,0 10,5 10,10l0 17c0,5 -5,9 -10,9l-17 0c-5,0 -9,-4 -9,-9l0 -17c0,-5 4,-10 9,-10zm-47 0l17 0c5,0 9,5 9,10l0 17c0,5 -4,9 -9,9l-17 0c-5,0 -9,-4 -9,-9l0 -17c0,-5 4,-10 9,-10zm-48 0l17 0c6,0 10,5 10,10l0 17c0,5 -4,9 -10,9l-17 0c-5,0 -9,-4 -9,-9l0 -17c0,-5 4,-10 9,-10zm-47 0l17 0c5,0 9,5 9,10l0 17c0,5 -4,9 -9,9l-17 0c-5,0 -9,-4 -9,-9l0 -17c0,-5 4,-10 9,-10zm-48 0l18 0c5,0 9,5 9,10l0 17c0,5 -4,9 -9,9l-18 0c-5,0 -9,-4 -9,-9l0 -17c0,-5 4,-10 9,-10zm-47 0l17 0c5,0 9,5 9,10l0 17c0,5 -4,9 -9,9l-17 0c-5,0 -9,-4 -9,-9l0 -17c0,-5 4,-10 9,-10zm712 -47l17 0c5,0 9,4 9,9l0 17c0,5 -4,10 -9,10l-17 0c-5,0 -9,-5 -9,-10l0 -17c0,-5 4,-9 9,-9zm-48 0l18 0c5,0 9,4 9,9l0 17c0,5 -4,10 -9,10l-18 0c-5,0 -9,-5 -9,-10l0 -17c0,-5 4,-9 9,-9zm-47 0l17 0c5,0 9,4 9,9l0 17c0,5 -4,10 -9,10l-17 0c-5,0 -9,-5 -9,-10l0 -17c0,-5 4,-9 9,-9zm-95 0l17 0c5,0 9,4 9,9l0 17c0,5 -4,10 -9,10l-17 0c-5,0 -9,-5 -9,-10l0 -17c0,-5 4,-9 9,-9zm-47 0l17 0c5,0 9,4 9,9l0 17c0,5 -4,10 -9,10l-17 0c-6,0 -10,-5 -10,-10l0 -17c0,-5 4,-9 10,-9zm-48 0l17 0c5,0 9,4 9,9l0 17c0,5 -4,10 -9,10l-17 0c-5,0 -9,-5 -9,-10l0 -17c0,-5 4,-9 9,-9zm-47 0l17 0c5,0 9,4 9,9l0 17c0,5 -4,10 -9,10l-17 0c-5,0 -10,-5 -10,-10l0 -17c0,-5 5,-9 10,-9zm-48 0l17 0c5,0 10,4 10,9l0 17c0,5 -5,10 -10,10l-17 0c-5,0 -9,-5 -9,-10l0 -17c0,-5 4,-9 9,-9zm-47 0l17 0c5,0 9,4 9,9l0 17c0,5 -4,10 -9,10l-17 0c-5,0 -10,-5 -10,-10l0 -17c0,-5 5,-9 10,-9zm-48 0l17 0c5,0 10,4 10,9l0 17c0,5 -5,10 -10,10l-17 0c-5,0 -9,-5 -9,-10l0 -17c0,-5 4,-9 9,-9zm-47 0l17 0c5,0 9,4 9,9l0 17c0,5 -4,10 -9,10l-17 0c-5,0 -9,-5 -9,-10l0 -17c0,-5 4,-9 9,-9zm-48 0l17 0c6,0 10,4 10,9l0 17c0,5 -4,10 -10,10l-17 0c-5,0 -9,-5 -9,-10l0 -17c0,-5 4,-9 9,-9zm-47 0l17 0c5,0 9,4 9,9l0 17c0,5 -4,10 -9,10l-17 0c-5,0 -9,-5 -9,-10l0 -17c0,-5 4,-9 9,-9zm-48 0l18 0c5,0 9,4 9,9l0 17c0,5 -4,10 -9,10l-18 0c-5,0 -9,-5 -9,-10l0 -17c0,-5 4,-9 9,-9zm-47 0l17 0c5,0 9,4 9,9l0 17c0,5 -4,10 -9,10l-17 0c-5,0 -9,-5 -9,-10l0 -17c0,-5 4,-9 9,-9zm712 -48l17 0c5,0 9,5 9,10l0 17c0,5 -4,9 -9,9l-17 0c-5,0 -9,-4 -9,-9l0 -17c0,-5 4,-10 9,-10zm-48 0l18 0c5,0 9,5 9,10l0 17c0,5 -4,9 -9,9l-18 0c-5,0 -9,-4 -9,-9l0 -17c0,-5 4,-10 9,-10zm-47 0l17 0c5,0 9,5 9,10l0 17c0,5 -4,9 -9,9l-17 0c-5,0 -9,-4 -9,-9l0 -17c0,-5 4,-10 9,-10zm-95 0l17 0c5,0 9,5 9,10l0 17c0,5 -4,9 -9,9l-17 0c-5,0 -9,-4 -9,-9l0 -17c0,-5 4,-10 9,-10zm-47 0l17 0c5,0 9,5 9,10l0 17c0,5 -4,9 -9,9l-17 0c-6,0 -10,-4 -10,-9l0 -17c0,-5 4,-10 10,-10zm-48 0l17 0c5,0 9,5 9,10l0 17c0,5 -4,9 -9,9l-17 0c-5,0 -9,-4 -9,-9l0 -17c0,-5 4,-10 9,-10zm-47 0l17 0c5,0 9,5 9,10l0 17c0,5 -4,9 -9,9l-17 0c-5,0 -10,-4 -10,-9l0 -17c0,-5 5,-10 10,-10zm-48 0l17 0c5,0 10,5 10,10l0 17c0,5 -5,9 -10,9l-17 0c-5,0 -9,-4 -9,-9l0 -17c0,-5 4,-10 9,-10zm-47 0l17 0c5,0 9,5 9,10l0 17c0,5 -4,9 -9,9l-17 0c-5,0 -10,-4 -10,-9l0 -17c0,-5 5,-10 10,-10zm-48 0l17 0c5,0 10,5 10,10l0 17c0,5 -5,9 -10,9l-17 0c-5,0 -9,-4 -9,-9l0 -17c0,-5 4,-10 9,-10zm-47 0l17 0c5,0 9,5 9,10l0 17c0,5 -4,9 -9,9l-17 0c-5,0 -9,-4 -9,-9l0 -17c0,-5 4,-10 9,-10zm-48 0l17 0c6,0 10,5 10,10l0 17c0,5 -4,9 -10,9l-17 0c-5,0 -9,-4 -9,-9l0 -17c0,-5 4,-10 9,-10zm-47 0l17 0c5,0 9,5 9,10l0 17c0,5 -4,9 -9,9l-17 0c-5,0 -9,-4 -9,-9l0 -17c0,-5 4,-10 9,-10zm-48 0l18 0c5,0 9,5 9,10l0 17c0,5 -4,9 -9,9l-18 0c-5,0 -9,-4 -9,-9l0 -17c0,-5 4,-10 9,-10z"/>
   <path class="fil3" d="M1420 0c66,0 119,62 119,138 0,77 -53,139 -119,139 0,0 -36,0 -36,0 -65,-1 -83,-62 -83,-139 0,-76 17,-137 82,-138 1,0 37,0 37,0z"/>
   <ellipse class="fil0" cx="1381" cy="138" rx="119" ry="138"/>
   <path class="fil3" d="M1381 19c28,0 53,14 72,35 18,22 30,52 30,84 0,33 -12,63 -30,85 -19,21 -44,34 -72,34 -29,0 -54,-13 -73,-34 -18,-22 -29,-52 -29,-85 0,-32 11,-62 29,-84 19,-21 44,-35 73,-35zm64 44c-16,-20 -39,-32 -64,-32 -26,0 -49,12 -65,32 -17,19 -27,46 -27,75 0,30 10,57 27,76 16,20 39,32 65,32 25,0 48,-12 64,-32 17,-19 27,-46 27,-76 0,-29 -10,-56 -27,-75z"/>
   <path class="fil4" d="M1372 220l0 -21 18 0 0 21 -18 0zm0 -142l0 -21 18 0 0 21 -18 0zm10 127c-8,0 -15,-2 -21,-5 -5,-3 -10,-8 -14,-14 -4,-6 -6,-13 -7,-22l17 -3c2,7 5,13 9,17 5,5 10,7 17,7 6,0 11,-2 15,-5 4,-4 6,-8 6,-14 0,-3 -1,-6 -3,-9 -2,-2 -5,-4 -9,-5l-26 -10c-15,-6 -22,-16 -22,-33 0,-7 1,-14 4,-19 3,-6 8,-10 13,-13 6,-3 12,-5 20,-5 7,0 13,2 18,5 6,3 10,7 14,12 4,6 6,13 8,20l-19 4c0,-4 -2,-7 -4,-11 -2,-3 -4,-5 -7,-7 -3,-2 -7,-3 -11,-3 -3,0 -6,1 -9,2 -3,1 -5,3 -7,6 -2,2 -3,5 -3,8 0,4 2,7 4,9 2,3 6,5 11,7l19 6c10,4 16,8 20,13 4,6 6,13 6,22 0,8 -1,15 -5,21 -3,6 -7,10 -13,14 -6,3 -13,5 -21,5z"/>
  </g>
 </g>
</svg>
